<svg role="img" aria-labelledby="Qleverize by makers of Qlever logo" width="143" height="40" viewBox="0 0 143 40" fill="none" xmlns="http://www.w3.org/2000/svg">
          <g id="Logo Qleverize2-01 2" clip-path="url(#clip0_4906_472)">
            <path id="logo_i" d="M108.248 5.20439C107.508 5.20439 106.893 4.95623 106.399 4.45993C105.928 3.94493 105.691 3.32455 105.691 2.60219C105.691 1.87983 105.928 1.23906 106.399 0.744455C106.893 0.248152 107.51 0 108.248 0C108.986 0 109.593 0.248152 110.065 0.742755C110.536 1.23736 110.773 1.85774 110.773 2.60049C110.773 3.34325 110.536 3.94323 110.065 4.45823C109.593 4.95453 108.986 5.20269 108.248 5.20269V5.20439ZM105.877 22.3336V7.27968H110.59V22.3336H105.877Z" fill="#DD378B"></path>
            <g id="logo_main">
              <path d="M11.4247 18.2766C12.7393 18.2766 13.8782 17.9876 14.8431 17.4097C15.808 16.8318 16.5565 16.0262 17.0905 14.9945C17.6448 13.9407 17.9219 12.7322 17.9219 11.3691C17.9219 10.3374 17.7681 9.40768 17.4606 8.58164C17.153 7.73521 16.712 7.01285 16.1358 6.41286C15.5613 5.79418 14.8735 5.32848 14.0726 5.01914C13.2919 4.6894 12.4098 4.52453 11.4247 4.52453C10.132 4.52453 9.0015 4.81348 8.03663 5.39136C7.07176 5.94885 6.31136 6.7443 5.75711 7.776C5.22313 8.789 4.95615 9.98727 4.95615 11.3691C4.95615 12.4025 5.10992 13.3407 5.41746 14.1888C5.725 15.0353 6.16604 15.7678 6.74225 16.3882C7.31678 16.9865 7.99439 17.4522 8.77507 17.7819C9.57603 18.1134 10.4581 18.2782 11.423 18.2782L11.4247 18.2766ZM21.1883 24.069L11.0259 13.8455L13.8275 11.0275L23.9899 21.251L21.1883 24.069ZM11.4872 22.7059C9.86498 22.7059 8.356 22.4169 6.96024 21.8391C5.56447 21.2612 4.34276 20.4555 3.29509 19.4221C2.2677 18.3887 1.45829 17.1922 0.861792 15.829C0.287264 14.4455 0 12.9583 0 11.3674C0 9.77651 0.287264 8.2706 0.861792 6.90747C1.43632 5.54433 2.23728 4.35796 3.26467 3.34496C4.31234 2.31156 5.52223 1.51612 6.8994 0.960328C8.29517 0.38244 9.80415 0.0917969 11.4247 0.0917969C13.0452 0.0917969 14.5761 0.380741 15.9516 0.960328C17.3474 1.51782 18.5589 2.31326 19.5863 3.34496C20.634 4.35796 21.4451 5.55453 22.0196 6.93806C22.5942 8.3012 22.8814 9.78841 22.8814 11.398C22.8814 13.0076 22.5942 14.4744 22.0196 15.8579C21.4451 17.2211 20.634 18.4193 19.5863 19.4527C18.5589 20.464 17.3592 21.2595 15.9837 21.8374C14.6082 22.4152 13.1094 22.7042 11.4872 22.7042V22.7059Z" fill="#3222A6"></path>
              <path d="M30.2475 22.3335V18.0588H40.9945V22.3335H30.2475ZM26.5215 22.3335V0.463867H31.356V22.3335H26.5215Z" fill="#3222A6"></path>
              <path d="M50.503 22.6738C48.8808 22.6738 47.4343 22.344 46.1602 21.6829C44.9081 21.0013 43.9229 20.0614 43.2031 18.8648C42.4849 17.6666 42.125 16.3136 42.125 14.806C42.125 13.2984 42.4748 11.9557 43.1727 10.7795C43.8908 9.58293 44.8557 8.64301 46.0673 7.96144C47.2789 7.27987 48.6442 6.93994 50.1633 6.93994C51.6824 6.93994 52.9447 7.26118 54.0752 7.90025C55.204 8.54103 56.0877 9.42826 56.7231 10.5636C57.3804 11.699 57.7082 13.001 57.7082 14.4661C57.7082 14.7346 57.6879 15.0236 57.6474 15.3329C57.6271 15.6218 57.5747 15.9635 57.4936 16.3544L44.5904 16.385V13.1318L55.4929 13.1012L53.4601 14.4644C53.4398 13.5975 53.3063 12.8854 53.0596 12.3262C52.8129 11.7483 52.4445 11.3149 51.9511 11.0259C51.4797 10.7166 50.8933 10.5619 50.1954 10.5619C49.457 10.5619 48.8098 10.7387 48.2556 11.0888C47.7216 11.4203 47.3008 11.8945 46.9933 12.5132C46.706 13.1318 46.5624 13.8848 46.5624 14.7737C46.5624 15.6626 46.7162 16.4258 47.0237 17.0666C47.3515 17.6852 47.8044 18.1714 48.3789 18.5232C48.9737 18.8529 49.6716 19.0178 50.4726 19.0178C51.211 19.0178 51.8785 18.8954 52.475 18.6473C53.0698 18.3787 53.5936 17.9861 54.0448 17.4694L56.6318 20.0699C55.8934 20.9367 54.9995 21.5877 53.9518 22.0228C52.9042 22.4562 51.7551 22.6721 50.503 22.6721V22.6738Z" fill="#3222A6"></path>
              <path d="M64.4555 22.3337L58.1104 7.27979H63.1932L67.5039 19.825H65.2869L69.5975 7.27979H74.5875L68.2423 22.3337H64.4555Z" fill="#3222A6"></path>
              <path d="M83.2539 22.6738C81.6317 22.6738 80.1853 22.344 78.9112 21.6829C77.6591 21.0013 76.6739 20.0614 75.9541 18.8648C75.2359 17.6666 74.876 16.3136 74.876 14.806C74.876 13.2984 75.2258 11.9557 75.9236 10.7795C76.6418 9.58293 77.6067 8.64301 78.8183 7.96144C80.0298 7.27987 81.3952 6.93994 82.9143 6.93994C84.4334 6.93994 85.6957 7.26118 86.8262 7.90025C87.9549 8.54103 88.8387 9.42826 89.4741 10.5636C90.1314 11.699 90.4592 13.001 90.4592 14.4661C90.4592 14.7346 90.4389 15.0236 90.3984 15.3329C90.3781 15.6218 90.3257 15.9635 90.2446 16.3544L77.3414 16.385V13.1318L88.2439 13.1012L86.2111 14.4644C86.1908 13.5975 86.0573 12.8854 85.8106 12.3262C85.5639 11.7483 85.1938 11.3149 84.7021 11.0259C84.2306 10.7166 83.6443 10.5619 82.9464 10.5619C82.208 10.5619 81.5608 10.7387 81.0065 11.0888C80.4726 11.4203 80.0518 11.8945 79.7443 12.5132C79.457 13.1318 79.3134 13.8848 79.3134 14.7737C79.3134 15.6626 79.4671 16.4258 79.7747 17.0666C80.1025 17.6852 80.5554 18.1714 81.1299 18.5232C81.7247 18.8529 82.4226 19.0178 83.2235 19.0178C83.962 19.0178 84.6294 18.8954 85.2259 18.6473C85.8207 18.3787 86.3446 17.9861 86.7957 17.4694L89.3828 20.0699C88.6444 20.9367 87.7505 21.5877 86.7028 22.0228C85.6551 22.4562 84.5061 22.6721 83.2539 22.6721V22.6738Z" fill="#3222A6"></path>
              <path d="M97.4462 14.0629L95.4759 12.5145C95.8663 10.7588 96.5236 9.39734 97.4462 8.42513C98.3705 7.45462 99.6531 6.97021 101.296 6.97021C102.014 6.97021 102.641 7.08409 103.173 7.31015C103.727 7.51751 104.21 7.84724 104.621 8.30106L101.819 11.8636C101.613 11.6375 101.358 11.4607 101.051 11.3384C100.741 11.2143 100.393 11.1514 100.003 11.1514C99.2222 11.1514 98.597 11.3996 98.1238 11.8959C97.6727 12.3701 97.4462 13.0924 97.4462 14.0646V14.0629ZM92.7334 22.3335V7.27956H97.4445V22.3335H92.7334Z" fill="#3222A6"></path>
              <path d="M113.506 11.2451V7.27979H126.193V10.0366L122.868 11.2451H113.506ZM112.952 22.3337V19.5463L116.31 18.3684H126.011V22.3337H112.952ZM112.952 19.5463L120.467 10.0366H126.195L118.682 19.5463H112.952Z" fill="#3222A6"></path>
              <path d="M135.793 22.6738C134.171 22.6738 132.725 22.344 131.451 21.6829C130.198 21.0013 129.213 20.0614 128.493 18.8648C127.775 17.6666 127.417 16.3136 127.417 14.806C127.417 13.2984 127.765 11.9557 128.465 10.7795C129.183 9.58293 130.148 8.64301 131.359 7.96144C132.571 7.27987 133.936 6.93994 135.455 6.93994C136.974 6.93994 138.238 7.26118 139.367 7.90025C140.496 8.54103 141.38 9.42826 142.015 10.5636C142.672 11.699 143 13.001 143 14.4661C143 14.7346 142.98 15.0236 142.938 15.3329C142.917 15.6218 142.865 15.9635 142.784 16.3544L129.881 16.385V13.1318L140.782 13.1012L138.75 14.4644C138.73 13.5975 138.597 12.8854 138.35 12.3262C138.103 11.7483 137.735 11.3149 137.241 11.0259C136.768 10.7166 136.184 10.5619 135.486 10.5619C134.746 10.5619 134.1 10.7387 133.544 11.0888C133.012 11.4203 132.589 11.8945 132.282 12.5132C131.995 13.1318 131.851 13.8848 131.851 14.7737C131.851 15.6626 132.005 16.4258 132.312 17.0666C132.64 17.6852 133.093 18.1714 133.668 18.5232C134.264 18.8529 134.96 19.0178 135.761 19.0178C136.501 19.0178 137.167 18.8954 137.764 18.6473C138.36 18.3787 138.882 17.9861 139.335 17.4694L141.922 20.0699C141.182 20.9367 140.29 21.5877 139.244 22.0228C138.196 22.4562 137.047 22.6721 135.795 22.6721L135.793 22.6738Z" fill="#3222A6"></path>
            </g>
            <g id="logo_slogan">
              <path d="M28.0162 32.3564C28.3846 32.1201 28.8223 32.0012 29.3258 32.0012C29.8294 32.0012 30.2535 32.115 30.6405 32.3411C31.0257 32.5672 31.3282 32.8901 31.5479 33.3082C31.7676 33.7263 31.8757 34.2107 31.8757 34.7631C31.8757 35.3155 31.7659 35.8016 31.5479 36.2231C31.3282 36.6447 31.0241 36.9693 30.6354 37.1988C30.2468 37.4282 29.8108 37.5438 29.3258 37.5438C28.8155 37.5438 28.3762 37.4265 28.0078 37.1937C27.6377 36.9608 27.369 36.6566 27.1984 36.2809V37.4639H26.5225V30.1655H27.1984V33.2725C27.3741 32.8986 27.6479 32.5927 28.0179 32.3547L28.0162 32.3564ZM30.9176 33.604C30.7436 33.2793 30.507 33.0312 30.2062 32.8595C29.9054 32.6878 29.5658 32.6029 29.1873 32.6029C28.8087 32.6029 28.486 32.6912 28.1818 32.8697C27.8777 33.0465 27.6377 33.2997 27.462 33.6295C27.2862 33.9575 27.1967 34.3399 27.1967 34.7733C27.1967 35.2067 27.2846 35.5892 27.462 35.9172C27.6377 36.2452 27.8794 36.4985 28.1818 36.677C28.486 36.8537 28.8206 36.9438 29.1873 36.9438C29.5539 36.9438 29.9054 36.8571 30.2062 36.6821C30.507 36.507 30.7436 36.2554 30.9176 35.9223C31.09 35.5909 31.1778 35.2033 31.1778 34.7631C31.1778 34.3229 31.0916 33.9303 30.9176 33.604Z" fill="#3222A6"></path>
              <path d="M37.5518 32.0813L34.375 40H33.6585L34.6977 37.4352L32.501 32.0796H33.2563L35.0796 36.6755L36.8437 32.0796H37.5501L37.5518 32.0813Z" fill="#3222A6"></path>
              <path d="M42.0625 36.006C42.0625 36.334 42.125 36.5618 42.2484 36.6859C42.3717 36.8099 42.5914 36.8728 42.9057 36.8728H43.5326V37.4643H42.7975C42.3143 37.4643 41.9543 37.3504 41.7195 37.1244C41.4846 36.8983 41.3663 36.5244 41.3663 36.0043V32.661H40.6211V32.0798H41.3663V30.7285H42.0625V32.0798H43.5326V32.661H42.0625V36.006Z" fill="#3222A6"></path>
              <path d="M48.3026 32.2374C48.6254 32.4091 48.8805 32.6691 49.0681 33.021C49.254 33.3728 49.3469 33.8011 49.3469 34.3076V37.4639H48.671V34.3875C48.671 33.8028 48.5257 33.3558 48.235 33.0465C47.9444 32.7371 47.5473 32.5825 47.0437 32.5825C46.5402 32.5825 46.116 32.7473 45.8085 33.0754C45.501 33.4034 45.3472 33.8878 45.3472 34.5252V37.4639H44.6611V30.1655H45.3472V32.9955C45.5179 32.6742 45.7679 32.4227 46.0975 32.2459C46.427 32.0692 46.7987 31.9791 47.211 31.9791C47.6233 31.9791 47.9816 32.0641 48.3043 32.2357L48.3026 32.2374Z" fill="#3222A6"></path>
              <path d="M55.6904 35.0385H51.2479C51.2682 35.4464 51.3662 35.7949 51.542 36.0838C51.7177 36.3728 51.9509 36.592 52.2382 36.7399C52.5254 36.8878 52.8397 36.9625 53.1794 36.9625C53.6238 36.9625 53.9989 36.8538 54.3014 36.6362C54.6056 36.4187 54.8066 36.1263 54.9047 35.7592H55.6296C55.4995 36.2861 55.219 36.7144 54.7914 37.0458C54.3639 37.3773 53.8266 37.5438 53.1794 37.5438C52.6758 37.5438 52.2246 37.43 51.8259 37.2039C51.4271 36.9778 51.1145 36.6549 50.8897 36.2368C50.6633 35.8187 50.5518 35.3309 50.5518 34.7717C50.5518 34.2125 50.6633 33.723 50.8846 33.3015C51.106 32.8799 51.4169 32.5587 51.8157 32.3343C52.2145 32.1117 52.6691 31.9995 53.1794 31.9995C53.6897 31.9995 54.1358 32.1117 54.5177 32.3343C54.8996 32.5587 55.1936 32.8595 55.3998 33.2369C55.6059 33.6142 55.709 34.034 55.709 34.4946C55.709 34.7309 55.7022 34.9127 55.6887 35.0368L55.6904 35.0385ZM54.7729 33.451C54.6056 33.1689 54.3791 32.9547 54.0919 32.8103C53.8046 32.6658 53.4903 32.5927 53.1507 32.5927C52.6403 32.5927 52.2061 32.7576 51.8461 33.0856C51.4862 33.4136 51.2868 33.8776 51.2479 34.4759H55.0128C55.0196 34.0748 54.9384 33.7332 54.7729 33.451Z" fill="#3222A6"></path>
              <path d="M67.5579 32.5792C67.9533 32.977 68.151 33.5532 68.151 34.3095V37.4658H67.4751V34.3894C67.4751 33.8047 67.3348 33.3577 67.0543 33.0483C66.7738 32.739 66.3902 32.5843 65.907 32.5843C65.4237 32.5843 65.0012 32.7526 64.7005 33.0874C64.3997 33.4223 64.2493 33.9101 64.2493 34.5475V37.4658H63.5734V34.3894C63.5734 33.8047 63.4331 33.3577 63.1526 33.0483C62.8721 32.739 62.4851 32.5843 61.9951 32.5843C61.5051 32.5843 61.0894 32.7526 60.7886 33.0874C60.4878 33.4223 60.3374 33.9101 60.3374 34.5475V37.4658H59.6514V32.0812H60.3374V33.0076C60.5081 32.6727 60.7497 32.4178 61.0623 32.2427C61.3766 32.0693 61.7264 31.981 62.1117 31.981C62.5764 31.981 62.9819 32.0931 63.3317 32.3158C63.6815 32.5401 63.935 32.8682 64.0921 33.3016C64.2358 32.875 64.4825 32.5469 64.8323 32.3209C65.182 32.0948 65.5791 31.981 66.0236 31.981C66.6505 31.981 67.1625 32.1798 67.5579 32.5775V32.5792Z" fill="#3222A6"></path>
              <path d="M69.685 33.3085C69.9047 32.8904 70.2071 32.5692 70.5975 32.3414C70.9861 32.1136 71.4255 32.0015 71.9155 32.0015C72.4055 32.0015 72.8652 32.1204 73.2335 32.3567C73.6019 32.5929 73.8689 32.8955 74.0328 33.2643V32.0813H74.7189V37.4659H74.0328V36.2727C73.8621 36.6416 73.5935 36.9458 73.2234 37.1855C72.8533 37.4251 72.414 37.5458 71.9054 37.5458C71.3967 37.5458 70.9844 37.4302 70.5958 37.2008C70.2071 36.9713 69.903 36.645 69.6833 36.2251C69.4636 35.8036 69.3555 35.3175 69.3555 34.7651C69.3555 34.2127 69.4653 33.7283 69.6833 33.3102L69.685 33.3085ZM73.7692 33.628C73.5935 33.3 73.3518 33.0468 73.0493 32.8683C72.7452 32.6915 72.4106 32.6014 72.0439 32.6014C71.6772 32.6014 71.3241 32.6864 71.025 32.8581C70.7242 33.0298 70.4876 33.2779 70.3136 33.6026C70.1395 33.9289 70.0534 34.3147 70.0534 34.7617C70.0534 35.2087 70.1395 35.5895 70.3136 35.9209C70.4859 36.2523 70.7242 36.5056 71.025 36.6807C71.3258 36.8557 71.6654 36.9424 72.0439 36.9424C72.4224 36.9424 72.7452 36.854 73.0493 36.6756C73.3535 36.4988 73.5935 36.2455 73.7692 35.9158C73.9449 35.5878 74.0345 35.2053 74.0345 34.7719C74.0345 34.3385 73.9466 33.9561 73.7692 33.628Z" fill="#3222A6"></path>
              <path d="M79.182 37.4659L76.9751 35.0489V37.4659H76.2891V30.1675H76.9751V34.4863L79.133 32.0796H80.0945L77.5547 34.7617L80.1131 37.4642H79.182V37.4659Z" fill="#3222A6"></path>
              <path d="M85.8193 35.0385H81.3769C81.3971 35.4464 81.4951 35.7949 81.6709 36.0838C81.8466 36.3728 82.0798 36.592 82.3671 36.7399C82.6543 36.8878 82.9686 36.9625 83.3083 36.9625C83.7527 36.9625 84.1278 36.8538 84.4303 36.6362C84.7345 36.4187 84.9356 36.1263 85.0336 35.7592H85.7585C85.6284 36.2861 85.3479 36.7144 84.9203 37.0458C84.4928 37.3773 83.9555 37.5438 83.3083 37.5438C82.8047 37.5438 82.3536 37.43 81.9548 37.2039C81.556 36.9778 81.2434 36.6549 81.0186 36.2368C80.7922 35.8187 80.6807 35.3309 80.6807 34.7717C80.6807 34.2125 80.7922 33.723 81.0136 33.3015C81.2349 32.8799 81.5458 32.5587 81.9446 32.3343C82.3434 32.1117 82.798 31.9995 83.3083 31.9995C83.8186 31.9995 84.2647 32.1117 84.6466 32.3343C85.0285 32.5587 85.3225 32.8595 85.5287 33.2369C85.7348 33.6142 85.8379 34.034 85.8379 34.4946C85.8379 34.7309 85.8311 34.9127 85.8176 35.0368L85.8193 35.0385ZM84.9034 33.451C84.7362 33.1689 84.5097 32.9547 84.2225 32.8103C83.9352 32.6658 83.6209 32.5927 83.2812 32.5927C82.7709 32.5927 82.3367 32.7576 81.9767 33.0856C81.6168 33.4136 81.4174 33.8776 81.3785 34.4759H85.1434C85.1502 34.0748 85.069 33.7332 84.9034 33.451Z" fill="#3222A6"></path>
              <path d="M88.4719 32.2578C88.7828 32.0742 89.163 31.9824 89.6142 31.9824V32.7031H89.4283C88.9315 32.7031 88.5327 32.8374 88.232 33.1076C87.9312 33.3778 87.7808 33.8283 87.7808 34.4588V37.4673H87.0947V32.0827H87.7808V33.0396C87.9312 32.7048 88.161 32.4447 88.4719 32.2612V32.2578Z" fill="#3222A6"></path>
              <path d="M90.9814 37.1155C90.5927 36.83 90.3747 36.4407 90.3291 35.9461H91.0354C91.0675 36.2487 91.2095 36.4934 91.4613 36.6804C91.713 36.8674 92.051 36.9608 92.4768 36.9608C92.8486 36.9608 93.1409 36.8725 93.3538 36.694C93.5667 36.5172 93.6732 36.2963 93.6732 36.0328C93.6732 35.8493 93.614 35.698 93.4975 35.579C93.3809 35.46 93.2305 35.3666 93.0513 35.2986C92.8722 35.2306 92.6289 35.1558 92.3214 35.0759C91.9226 34.9705 91.5998 34.8652 91.3514 34.7598C91.103 34.6544 90.8918 34.498 90.7194 34.2907C90.5454 34.0833 90.4592 33.8063 90.4592 33.4578C90.4592 33.1944 90.5369 32.9513 90.6941 32.7287C90.8512 32.506 91.0726 32.3275 91.3599 32.1967C91.6471 32.0658 91.975 31.9995 92.34 31.9995C92.9145 31.9995 93.3792 32.1457 93.7323 32.438C94.0855 32.7304 94.2748 33.1332 94.3018 33.6465H93.6157C93.5955 33.3304 93.4738 33.0754 93.2474 32.8816C93.0209 32.6879 92.7134 32.591 92.3214 32.591C91.975 32.591 91.6944 32.6726 91.4782 32.8374C91.2619 33.0023 91.1554 33.2063 91.1554 33.4493C91.1554 33.6601 91.2196 33.8318 91.3464 33.9677C91.4731 34.102 91.6319 34.2074 91.8212 34.2839C92.0104 34.3604 92.2656 34.4436 92.5867 34.5354C92.9719 34.6408 93.2795 34.7428 93.5076 34.8414C93.7357 34.9399 93.9317 35.0844 94.0956 35.2748C94.2595 35.4651 94.344 35.7184 94.3508 36.0345C94.3508 36.3235 94.2731 36.5818 94.1159 36.8079C93.9588 37.0339 93.7408 37.2141 93.4586 37.345C93.1764 37.4758 92.8536 37.5421 92.4887 37.5421C91.8736 37.5421 91.3717 37.3994 90.983 37.1138L90.9814 37.1155Z" fill="#3222A6"></path>
              <path d="M99.316 37.2039C98.9139 36.9778 98.5962 36.6549 98.3647 36.2368C98.1332 35.8187 98.0166 35.3309 98.0166 34.7717C98.0166 34.2125 98.1349 33.7247 98.3698 33.3066C98.6047 32.8884 98.9257 32.5672 99.3313 32.3394C99.7368 32.1117 100.191 31.9995 100.695 31.9995C101.198 31.9995 101.655 32.1134 102.062 32.3394C102.471 32.5655 102.79 32.8884 103.023 33.3066C103.255 33.7247 103.372 34.2125 103.372 34.7717C103.372 35.3309 103.253 35.8102 103.018 36.2317C102.783 36.6532 102.459 36.9761 102.048 37.2022C101.636 37.4283 101.18 37.5421 100.676 37.5421C100.173 37.5421 99.7199 37.4283 99.3177 37.2022L99.316 37.2039ZM101.655 36.7008C101.955 36.5393 102.199 36.2963 102.385 35.9716C102.571 35.6453 102.664 35.2476 102.664 34.7734C102.664 34.2992 102.572 33.9014 102.39 33.5751C102.207 33.2488 101.966 33.0057 101.665 32.8459C101.364 32.6845 101.038 32.6046 100.685 32.6046C100.332 32.6046 100.005 32.6845 99.7047 32.8459C99.4039 33.0074 99.164 33.2505 98.9849 33.5751C98.8057 33.9014 98.7145 34.2992 98.7145 34.7734C98.7145 35.2476 98.804 35.6453 98.9849 35.9716C99.164 36.2963 99.4022 36.541 99.7013 36.7008C99.9987 36.8623 100.323 36.9421 100.676 36.9421C101.029 36.9421 101.356 36.8623 101.656 36.7008H101.655Z" fill="#3222A6"></path>
              <path d="M106.732 32.6624H105.487V37.4657H104.801V32.6624H104.056V32.0811H104.801V31.7055C104.801 31.1208 104.95 30.6891 105.247 30.4137C105.544 30.1384 106.026 29.999 106.693 29.999V30.5905C106.249 30.5905 105.936 30.6755 105.757 30.8472C105.578 31.0188 105.487 31.3044 105.487 31.7055V32.0811H106.732V32.6624Z" fill="#3222A6"></path>
              <path d="M115.723 38.7083L114.527 37.4064C114.233 37.4913 113.908 37.5338 113.557 37.5338C112.923 37.5338 112.339 37.3843 111.806 37.0851C111.274 36.786 110.852 36.3679 110.541 35.8325C110.23 35.2971 110.074 34.6937 110.074 34.0223C110.074 33.3509 110.23 32.751 110.541 32.2173C110.852 31.6853 111.272 31.2689 111.806 30.9697C112.339 30.6706 112.922 30.521 113.557 30.521C114.192 30.521 114.784 30.6706 115.318 30.9697C115.852 31.2689 116.271 31.6853 116.578 32.2173C116.886 32.7493 117.04 33.3509 117.04 34.0223C117.04 34.6529 116.904 35.224 116.632 35.7339C116.36 36.2438 115.987 36.6534 115.51 36.961L117.148 38.7066H115.727L115.723 38.7083ZM111.522 35.36C111.722 35.7441 111.997 36.0398 112.35 36.2472C112.704 36.4545 113.106 36.5582 113.557 36.5582C114.008 36.5582 114.41 36.4545 114.763 36.2472C115.117 36.0398 115.392 35.7441 115.591 35.36C115.791 34.9758 115.89 34.5305 115.89 34.024C115.89 33.5175 115.791 33.0739 115.591 32.6932C115.392 32.3124 115.117 32.0201 114.763 31.8161C114.41 31.6122 114.008 31.5102 113.557 31.5102C113.106 31.5102 112.704 31.6122 112.35 31.8161C111.997 32.0201 111.722 32.3124 111.522 32.6932C111.323 33.0739 111.223 33.5192 111.223 34.024C111.223 34.5288 111.323 34.9758 111.522 35.36Z" fill="#3222A6"></path>
              <path d="M119.282 36.558H121.587V37.4656H118.165V30.6108H119.282V36.558Z" fill="#3222A6"></path>
              <path d="M127.43 35.1676H123.302C123.334 35.601 123.495 35.9495 123.782 36.2129C124.069 36.4764 124.422 36.6073 124.841 36.6073C125.443 36.6073 125.867 36.354 126.116 35.8475H127.322C127.158 36.3472 126.862 36.7568 126.435 37.0747C126.007 37.3942 125.475 37.5523 124.841 37.5523C124.324 37.5523 123.863 37.435 123.454 37.2021C123.045 36.9693 122.726 36.6395 122.493 36.2163C122.261 35.7931 122.145 35.3002 122.145 34.7427C122.145 34.1852 122.258 33.6923 122.482 33.2691C122.709 32.8459 123.025 32.5178 123.434 32.2884C123.843 32.0589 124.311 31.9434 124.841 31.9434C125.372 31.9434 125.806 32.0555 126.205 32.2782C126.604 32.5026 126.915 32.8153 127.136 33.2198C127.358 33.6243 127.469 34.09 127.469 34.6152C127.469 34.8192 127.456 35.0028 127.43 35.1676ZM126.303 34.26C126.296 33.8453 126.149 33.5139 125.862 33.264C125.575 33.0142 125.218 32.8884 124.794 32.8884C124.409 32.8884 124.078 33.0107 123.804 33.2589C123.53 33.5071 123.366 33.8385 123.314 34.26H126.305H126.303Z" fill="#3222A6"></path>
              <path d="M130.656 36.4594L132.186 32.0317H133.372L131.314 37.4656H129.98L127.931 32.0317H129.127L130.656 36.4594Z" fill="#3222A6"></path>
              <path d="M139.127 35.1676H134.999C135.031 35.601 135.192 35.9495 135.479 36.2129C135.766 36.4764 136.12 36.6073 136.539 36.6073C137.14 36.6073 137.564 36.354 137.813 35.8475H139.019C138.855 36.3472 138.56 36.7568 138.132 37.0747C137.705 37.3942 137.172 37.5523 136.539 37.5523C136.022 37.5523 135.56 37.435 135.151 37.2021C134.742 36.9693 134.423 36.6395 134.19 36.2163C133.958 35.7931 133.842 35.3002 133.842 34.7427C133.842 34.1852 133.955 33.6923 134.18 33.2691C134.406 32.8459 134.722 32.5178 135.131 32.2884C135.54 32.0589 136.008 31.9434 136.539 31.9434C137.069 31.9434 137.504 32.0555 137.902 32.2782C138.301 32.5026 138.612 32.8153 138.833 33.2198C139.055 33.6243 139.166 34.09 139.166 34.6152C139.166 34.8192 139.153 35.0028 139.127 35.1676ZM138 34.26C137.994 33.8453 137.847 33.5139 137.559 33.264C137.272 33.0142 136.916 32.8884 136.491 32.8884C136.106 32.8884 135.775 33.0107 135.501 33.2589C135.227 33.5071 135.064 33.8385 135.011 34.26H138.002H138Z" fill="#3222A6"></path>
              <path d="M142.033 32.1745C142.305 32.0198 142.626 31.9434 143 31.9434V33.1076H142.716C142.278 33.1076 141.945 33.2198 141.721 33.4425C141.496 33.6668 141.383 34.0543 141.383 34.6067V37.4673H140.266V32.0334H141.383V32.8221C141.546 32.5467 141.763 32.3309 142.035 32.1762L142.033 32.1745Z" fill="#3222A6"></path>
            </g>
          </g>
          <defs>
            <clipPath id="clip0_4906_472">
              <rect width="143" height="40" fill="white"></rect>
            </clipPath>
          </defs>
        </svg>