<?xml version="1.0" encoding="UTF-8"?>
<svg xmlns="http://www.w3.org/2000/svg" xmlns:xlink="http://www.w3.org/1999/xlink" width="1148" height="258" viewBox="0 0 1148 258">
<defs>
<clipPath id="clip-0">
<path clip-rule="nonzero" d="M 75 73 L 1074 73 L 1074 185 L 75 185 Z M 75 73 "/>
</clipPath>
<clipPath id="clip-1">
<path clip-rule="nonzero" d="M 94.257812 160.300781 C 104.367188 160.300781 111.308594 154.074219 114.476562 145.5625 L 114.476562 158.976562 L 128.125 158.976562 L 128.125 99.238281 L 114.238281 99.238281 L 114.238281 128.714844 C 114.238281 141.886719 107.90625 148.59375 99.261719 148.59375 C 92.453125 148.59375 89.015625 143.964844 89.015625 134.46875 L 89.015625 99.238281 L 75.265625 99.238281 L 75.265625 137.871094 C 75.265625 151.519531 81.730469 160.300781 94.257812 160.300781 Z M 154.558594 158.941406 L 154.558594 129.089844 C 154.558594 116.902344 160.789062 109.585938 169.535156 109.585938 C 177.09375 109.585938 180.734375 114.351562 180.734375 123.949219 L 180.734375 158.90625 L 194.757812 158.90625 L 194.757812 120.582031 C 194.757812 107.066406 187.679688 97.910156 174.640625 97.910156 C 164.292969 97.910156 157.214844 104.378906 154.183594 113.261719 L 154.183594 99.238281 L 140.671875 99.238281 L 140.671875 158.941406 Z M 219.898438 158.941406 L 219.898438 99.238281 L 206.011719 99.238281 L 206.011719 158.941406 Z M 265.066406 158.941406 L 288.214844 99.238281 L 274.324219 99.238281 L 258.363281 145.292969 L 242.875 99.238281 L 227.625 99.238281 L 250.535156 158.941406 Z M 319.765625 160.300781 C 334.265625 160.300781 343.152344 152.371094 346.828125 143.011719 L 335.355469 138.246094 C 332.667969 145.324219 327.800781 149.714844 320.242188 149.714844 C 309.757812 149.714844 304.652344 142.398438 304.28125 131.8125 L 347.066406 131.8125 L 347.066406 129.363281 C 347.066406 109.859375 337.058594 97.433594 319.390625 97.433594 C 303.054688 97.433594 290.628906 109.007812 290.628906 128.886719 C 290.664062 147.84375 301.011719 160.300781 319.765625 160.300781 Z M 333.175781 122.28125 L 304.652344 122.28125 C 305.640625 113.023438 310.984375 107.644531 319.289062 107.644531 C 327.324219 107.644531 332.699219 112.511719 333.175781 122.28125 Z M 371.4375 158.941406 L 371.4375 133.582031 C 371.4375 118.230469 379.367188 111.664062 391.550781 111.664062 C 392.265625 111.664062 392.878906 111.664062 393.457031 111.695312 C 393.457031 111.695312 394.039062 107 395.195312 97.636719 C 394.140625 97.570312 393.324219 97.503906 392.742188 97.503906 C 381.886719 97.503906 374.703125 104.582031 371.164062 115.542969 L 371.164062 99.203125 L 357.652344 99.203125 L 357.652344 158.90625 L 371.4375 158.90625 Z M 718.28125 158.941406 L 718.28125 133.582031 C 718.28125 118.230469 726.214844 111.664062 738.398438 111.664062 C 739.113281 111.664062 739.726562 111.664062 740.304688 111.695312 C 740.304688 111.695312 740.882812 107 742.039062 97.636719 C 740.984375 97.570312 740.167969 97.503906 739.589844 97.503906 C 728.730469 97.503906 721.550781 104.582031 718.011719 115.542969 L 718.011719 99.203125 L 704.496094 99.203125 L 704.496094 158.90625 L 718.28125 158.90625 Z M 982.757812 158.941406 L 982.757812 133.582031 C 982.757812 118.230469 990.6875 111.664062 1002.875 111.664062 C 1003.589844 111.664062 1004.199219 111.664062 1004.78125 111.695312 C 1004.78125 111.695312 1005.359375 107 1006.515625 97.636719 C 1005.460938 97.570312 1004.644531 97.503906 1004.066406 97.503906 C 993.207031 97.503906 986.023438 104.582031 982.484375 115.542969 L 982.484375 99.203125 L 968.972656 99.203125 L 968.972656 158.90625 L 982.757812 158.90625 Z M 424.195312 160.644531 C 439.308594 160.644531 449.042969 153.460938 449.042969 141.648438 C 449.042969 133.242188 444.175781 127.011719 432.601562 123.984375 L 422.253906 121.191406 C 415.683594 119.355469 412.859375 117.652344 412.859375 113.5 C 412.859375 109.585938 416.398438 106.792969 423.105469 106.792969 C 430.796875 106.792969 434.578125 111.558594 435.664062 116.425781 L 447.476562 113.261719 C 444.925781 103.390625 435.769531 97.433594 423.71875 97.433594 C 410.070312 97.433594 400.4375 104.242188 400.4375 115.101562 C 400.4375 123.644531 405.917969 129.734375 416.636719 132.390625 L 426.375 135.082031 C 433.691406 137.019531 436.007812 138.996094 436.007812 143.351562 C 436.007812 147.707031 432.089844 151.144531 424.433594 151.144531 C 416.503906 151.144531 411.261719 146.144531 410.070312 139.574219 L 397.882812 142.976562 C 399.960938 153.359375 409.457031 160.644531 424.195312 160.644531 Z M 473.074219 158.941406 L 473.074219 99.238281 L 459.1875 99.238281 L 459.1875 158.941406 Z M 511.707031 160.167969 C 516.097656 160.167969 519.976562 159.078125 522.191406 157.988281 L 522.191406 147.742188 C 519.738281 148.457031 517.800781 148.832031 515.382812 148.832031 C 509.425781 148.832031 506.601562 146.515625 506.601562 140.050781 L 506.601562 109.722656 L 521.578125 109.722656 L 521.578125 99.238281 L 506.464844 99.238281 L 506.464844 81.4375 L 493.191406 81.4375 L 493.191406 99.238281 L 480.015625 99.238281 L 480.015625 109.722656 L 493.191406 109.722656 L 493.191406 141.886719 C 493.15625 154.210938 499.621094 160.167969 511.707031 160.167969 Z M 548.367188 160.644531 C 558.472656 160.644531 565.417969 155.265625 568.480469 147.742188 C 568.957031 155.535156 573.484375 160.0625 581.757812 160.0625 C 584.820312 160.0625 587.984375 159.347656 589.925781 158.125 L 589.925781 149.238281 C 588.597656 149.851562 587.238281 149.953125 586.011719 149.953125 C 582.367188 149.953125 580.632812 148.355469 580.632812 143.148438 L 580.632812 120.714844 C 580.632812 105.601562 571.511719 97.433594 554.933594 97.433594 C 540.570312 97.433594 530.324219 104.753906 529.710938 115.472656 L 542.75 117.652344 L 542.75 116.5625 C 543.226562 110.335938 547.855469 106.929688 554.933594 106.929688 C 563.582031 106.929688 567.257812 111.082031 567.257812 118.640625 L 567.257812 121.941406 C 564.328125 121.703125 561.300781 121.464844 557.625 121.464844 C 541.660156 121.703125 528.863281 127.183594 528.863281 142.433594 C 528.863281 154.074219 537.03125 160.644531 548.367188 160.644531 Z M 552.890625 150.429688 C 546.425781 150.429688 542.542969 147.027344 542.542969 141.410156 C 542.542969 133.140625 549.625 130.078125 560.960938 129.839844 C 563.273438 129.839844 565.351562 129.972656 567.289062 130.078125 L 567.289062 134.332031 C 567.257812 144.441406 561.539062 150.429688 552.890625 150.429688 Z M 619.878906 160.167969 C 624.269531 160.167969 628.148438 159.078125 630.363281 157.988281 L 630.363281 147.742188 C 627.910156 148.457031 625.972656 148.832031 623.554688 148.832031 C 617.597656 148.832031 614.773438 146.515625 614.773438 140.050781 L 614.773438 109.722656 L 629.75 109.722656 L 629.75 99.238281 L 614.636719 99.238281 L 614.636719 81.4375 L 601.363281 81.4375 L 601.363281 99.238281 L 588.191406 99.238281 L 588.191406 109.722656 L 601.363281 109.722656 L 601.363281 141.886719 C 601.363281 154.210938 607.828125 160.167969 619.878906 160.167969 Z M 682.066406 158.941406 L 682.066406 109.722656 L 696.328125 109.722656 L 696.328125 99.238281 L 682.066406 99.238281 L 682.066406 93.519531 C 682.066406 87.664062 684.515625 84.875 690.710938 84.875 C 692.3125 84.875 694.117188 85.011719 696.191406 85.488281 L 696.191406 75.003906 C 693.742188 74.390625 690.710938 73.777344 687.410156 73.777344 C 676.210938 73.777344 668.65625 79.257812 668.65625 91.816406 L 668.65625 99.238281 L 636.320312 99.238281 L 636.320312 109.722656 L 668.65625 109.722656 L 668.65625 158.941406 Z M 772.777344 160.300781 C 787.277344 160.300781 796.160156 152.371094 799.835938 143.011719 L 788.367188 138.246094 C 785.675781 145.324219 780.808594 149.714844 773.253906 149.714844 C 762.769531 149.714844 757.664062 142.398438 757.289062 131.8125 L 800.074219 131.8125 L 800.074219 129.363281 C 800.074219 109.859375 790.070312 97.433594 772.402344 97.433594 C 756.066406 97.433594 743.640625 109.007812 743.640625 128.886719 C 743.675781 147.84375 754.023438 160.300781 772.777344 160.300781 Z M 786.1875 122.28125 L 757.664062 122.28125 C 758.652344 113.023438 763.996094 107.644531 772.300781 107.644531 C 780.332031 107.644531 785.710938 112.511719 786.1875 122.28125 Z M 823.902344 158.941406 L 823.902344 99.238281 L 810.015625 99.238281 L 810.015625 158.941406 Z M 870.023438 160.40625 C 884.046875 160.40625 894.394531 148.832031 894.394531 128.714844 C 894.394531 109.347656 884.285156 97.773438 870.023438 97.773438 C 859.914062 97.773438 853.34375 103.390625 850.28125 110.675781 L 850.28125 75.003906 L 836.394531 75.003906 L 836.394531 158.976562 L 850.042969 158.976562 L 850.042969 147.503906 C 853.207031 154.789062 860.050781 160.40625 870.023438 160.40625 Z M 865.394531 150.058594 C 855.898438 150.058594 850.042969 141.648438 850.042969 129.089844 C 850.042969 115.917969 856 108.121094 865.292969 108.121094 C 874.585938 108.121094 880.269531 115.542969 880.269531 128.953125 C 880.269531 142.738281 874.652344 150.058594 865.394531 150.058594 Z M 1047.597656 162.207031 L 1026.734375 162.207031 C 1024.28125 162.242188 1022.308594 162.753906 1020.878906 163.773438 C 1019.382812 164.828125 1018.632812 166.257812 1018.566406 168.097656 C 1018.53125 170.480469 1019.960938 172.25 1022.785156 173.40625 C 1025.644531 174.5625 1029.867188 175.144531 1035.515625 175.144531 C 1042.492188 175.144531 1047.597656 174.496094 1050.800781 173.203125 C 1054.03125 171.910156 1055.632812 170.003906 1055.632812 167.484375 C 1055.632812 165.613281 1054.953125 164.25 1053.625 163.433594 C 1052.296875 162.617188 1050.253906 162.207031 1047.597656 162.207031 Z M 1072.378906 95.289062 L 1073.265625 106.453125 L 1071.121094 106.453125 C 1068.53125 106.488281 1066.355469 107.375 1064.550781 109.074219 C 1062.78125 110.746094 1061.863281 113.300781 1061.796875 116.742188 L 1061.792969 117.140625 L 1061.792969 120.171875 C 1061.757812 124.359375 1060.703125 128.136719 1058.660156 131.4375 C 1056.585938 134.84375 1053.589844 137.496094 1049.710938 139.402344 C 1045.984375 141.265625 1041.695312 142.21875 1036.839844 142.292969 L 1036.230469 142.296875 L 1035.925781 142.296875 C 1032.207031 142.265625 1028.792969 141.691406 1025.59375 140.570312 L 1024.996094 140.355469 L 1024.761719 140.253906 L 1024.554688 140.320312 C 1023.5 140.730469 1022.546875 141.273438 1021.765625 141.957031 C 1020.605469 142.941406 1020.027344 144.203125 1020.027344 145.699219 C 1020.027344 147.367188 1020.675781 148.59375 1022.003906 149.410156 C 1023.257812 150.183594 1024.996094 150.589844 1027.277344 150.632812 L 1027.6875 150.636719 L 1050.664062 150.636719 C 1056.074219 150.667969 1060.261719 151.894531 1063.222656 154.347656 C 1066.253906 156.832031 1067.75 160.300781 1067.75 164.796875 C 1067.75 171.09375 1065.09375 175.925781 1059.75 179.296875 C 1054.441406 182.664062 1046.171875 184.332031 1035.003906 184.332031 C 1026.292969 184.332031 1019.585938 183.140625 1014.890625 180.792969 C 1010.191406 178.445312 1007.878906 175.144531 1007.878906 170.992188 C 1007.878906 168.300781 1008.796875 166.121094 1010.601562 164.488281 C 1012.402344 162.820312 1014.820312 161.628906 1017.816406 160.882812 C 1015.230469 160.167969 1013.1875 158.871094 1011.65625 156.964844 C 1010.125 155.09375 1009.375 152.679688 1009.375 149.75 C 1009.375 146.609375 1010.445312 143.90625 1012.585938 141.648438 L 1012.847656 141.378906 L 1013.015625 141.207031 C 1014.707031 139.578125 1016.699219 138.339844 1018.960938 137.546875 L 1019.414062 137.394531 L 1019.382812 137.394531 C 1017.203125 135.828125 1015.398438 133.957031 1013.9375 131.746094 C 1011.6875 128.339844 1010.601562 124.425781 1010.601562 119.96875 C 1010.601562 115.78125 1011.6875 111.96875 1013.835938 108.53125 C 1015.976562 105.09375 1019.042969 102.402344 1022.921875 100.429688 C 1026.835938 98.457031 1031.328125 97.46875 1036.367188 97.46875 C 1041.609375 97.46875 1046.238281 98.523438 1050.253906 100.632812 C 1054.238281 102.746094 1057.164062 105.707031 1058.96875 109.519531 C 1059.34375 104.921875 1060.703125 101.449219 1063.019531 99.035156 C 1065.332031 96.617188 1068.464844 95.390625 1072.378906 95.289062 Z M 917.269531 99.238281 L 917.269531 134.46875 C 917.269531 143.964844 920.671875 148.59375 927.511719 148.59375 C 936.0625 148.59375 942.347656 142.039062 942.488281 129.15625 L 942.492188 128.714844 L 942.492188 99.238281 L 956.378906 99.238281 L 956.378906 158.941406 L 942.730469 158.941406 L 942.730469 145.53125 C 939.5625 154.074219 932.621094 160.269531 922.511719 160.269531 C 910.078125 160.269531 903.648438 151.664062 903.519531 138.253906 L 903.515625 137.835938 L 903.515625 99.238281 Z M 1035.789062 106.828125 C 1033.40625 106.828125 1031.296875 107.304688 1029.421875 108.292969 C 1027.550781 109.28125 1026.085938 110.742188 1024.996094 112.683594 C 1023.910156 114.65625 1023.398438 117.074219 1023.398438 119.933594 C 1023.398438 124.222656 1024.554688 127.457031 1026.835938 129.632812 C 1029.117188 131.8125 1032.113281 132.902344 1035.789062 132.902344 C 1039.496094 132.902344 1042.492188 131.8125 1044.808594 129.601562 C 1047.121094 127.386719 1048.28125 124.152344 1048.28125 119.867188 C 1048.28125 116.972656 1047.734375 114.554688 1046.644531 112.617188 C 1045.558594 110.675781 1044.058594 109.210938 1042.1875 108.257812 C 1040.347656 107.304688 1038.203125 106.828125 1035.789062 106.828125 Z M 543.019531 74.492188 C 547.414062 74.492188 550.441406 77.761719 550.441406 81.914062 C 550.441406 86.167969 547.414062 89.46875 543.019531 89.46875 C 538.734375 89.46875 535.566406 86.167969 535.601562 81.914062 C 535.601562 77.792969 538.765625 74.492188 543.019531 74.492188 Z M 565.828125 74.492188 C 570.21875 74.492188 573.246094 77.761719 573.246094 81.914062 C 573.246094 86.167969 570.21875 89.46875 565.828125 89.46875 C 561.539062 89.46875 558.371094 86.167969 558.40625 81.914062 C 558.40625 77.792969 561.570312 74.492188 565.828125 74.492188 Z M 466.09375 74.492188 C 470.488281 74.492188 473.515625 77.761719 473.515625 81.914062 C 473.515625 86.167969 470.488281 89.46875 466.09375 89.46875 C 461.808594 89.46875 458.640625 86.167969 458.675781 81.914062 C 458.675781 77.792969 461.839844 74.492188 466.09375 74.492188 Z M 816.6875 74.492188 C 821.042969 74.492188 824.105469 77.761719 824.105469 81.914062 C 824.105469 86.167969 821.078125 89.46875 816.6875 89.46875 C 812.398438 89.46875 809.230469 86.167969 809.265625 81.914062 C 809.265625 77.792969 812.429688 74.492188 816.6875 74.492188 Z M 212.851562 74.492188 C 217.210938 74.492188 220.273438 77.761719 220.273438 81.914062 C 220.273438 86.167969 217.246094 89.46875 212.851562 89.46875 C 208.566406 89.46875 205.398438 86.167969 205.433594 81.914062 C 205.433594 77.792969 208.597656 74.492188 212.851562 74.492188 Z M 212.851562 74.492188 "/>
</clipPath>
</defs>
<g clip-path="url(#clip-0)">
<g clip-path="url(#clip-1)">
<path fill-rule="nonzero" fill="rgb(20.391846%, 29.019165%, 60.392761%)" fill-opacity="1" d="M 74.265625 72.777344 L 1074.265625 72.777344 L 1074.265625 185.332031 L 74.265625 185.332031 Z M 74.265625 72.777344 "/>
</g>
</g>
</svg>
